<svg width="19" height="18" viewBox="0 0 19 18" fill="none" xmlns="http://www.w3.org/2000/svg">
<g clip-path="url(#clip0_46_359)">
<path fill-rule="evenodd" clip-rule="evenodd" d="M17.1633 9.1819C17.1639 8.63333 17.1153 8.08581 17.0183 7.5459H9.48328V10.6409H13.7883C13.6988 11.1307 13.5109 11.5974 13.2359 12.0125C12.9609 12.4276 12.6045 12.7825 12.1883 13.0559V15.0619H14.7733C15.5615 14.3041 16.1817 13.389 16.5934 12.376C17.0052 11.363 17.1993 10.2748 17.1633 9.1819Z" fill="#4285F4"/>
<path fill-rule="evenodd" clip-rule="evenodd" d="M9.48323 17C11.4305 17.0527 13.3243 16.3595 14.7772 15.062L12.1922 13.055C11.5737 13.452 10.8727 13.7025 10.1427 13.7873C9.41263 13.8722 8.67286 13.7892 7.97978 13.5447C7.2867 13.3001 6.65863 12.9005 6.14347 12.3763C5.62832 11.8522 5.23969 11.2172 5.00723 10.52H2.33423V12.593C3.00028 13.918 4.02153 15.0318 5.28394 15.81C6.54635 16.5883 8.00023 17.0003 9.48323 17Z" fill="#34A853"/>
<path fill-rule="evenodd" clip-rule="evenodd" d="M5.00733 10.5202C4.67282 9.5345 4.67282 8.46595 5.00733 7.48023V5.40723H2.33433C1.77486 6.52214 1.48352 7.75231 1.48352 8.99973C1.48352 10.2471 1.77486 11.4773 2.33433 12.5922L5.00733 10.5192V10.5202Z" fill="#FBBC05"/>
<path fill-rule="evenodd" clip-rule="evenodd" d="M9.48323 4.182C10.6208 4.16392 11.7196 4.5951 12.5412 5.382L14.8362 3.087C13.3887 1.72568 11.4702 0.977724 9.48323 0.999995C8.00023 0.999764 6.54635 1.41176 5.28394 2.18997C4.02153 2.96818 3.00028 4.08198 2.33423 5.407L5.00723 7.48C5.3143 6.53083 5.91135 5.70188 6.71431 5.10988C7.51728 4.51788 8.4857 4.19266 9.48323 4.18V4.182Z" fill="#EA4335"/>
</g>
<defs>
<clipPath id="clip0_46_359">
<rect width="18" height="18" fill="white" transform="translate(0.483276)"/>
</clipPath>
</defs>
</svg>
