<svg width="19" height="18" viewBox="0 0 19 18" fill="none" xmlns="http://www.w3.org/2000/svg">
<path d="M9.48329 3.09229C5.95079 3.09229 3.08655 5.35429 3.08655 8.14429C3.13429 9.06154 3.43756 9.94714 3.96211 10.7011C4.48667 11.4551 5.21162 12.0474 6.05506 12.411L5.45504 14.661C5.44397 14.6941 5.4424 14.7297 5.45048 14.7636C5.45857 14.7975 5.476 14.8285 5.50079 14.853C5.51783 14.8703 5.53816 14.8839 5.56057 14.8932C5.58299 14.9025 5.60704 14.9072 5.6313 14.907C5.67197 14.9052 5.71093 14.8902 5.74228 14.8643L8.33429 13.1138C8.71582 13.1695 9.10079 13.1979 9.48629 13.1985C13.0188 13.1985 15.883 10.9365 15.883 8.14504C15.883 5.35353 13.018 3.09304 9.48629 3.09304" fill="#0A0A0A"/>
</svg>
